<svg width="42" height="42" viewBox="0 0 42 42" fill="none" xmlns="http://www.w3.org/2000/svg">
<path fill-rule="evenodd" clip-rule="evenodd" d="M8.75 1.75C6.89348 1.75 5.11301 2.4875 3.80025 3.80025C2.4875 5.11301 1.75 6.89348 1.75 8.75V33.25C1.75 35.1065 2.4875 36.887 3.80025 38.1997C5.11301 39.5125 6.89348 40.25 8.75 40.25H33.25C35.1065 40.25 36.887 39.5125 38.1997 38.1997C39.5125 36.887 40.25 35.1065 40.25 33.25V8.75C40.25 6.89348 39.5125 5.11301 38.1997 3.80025C36.887 2.4875 35.1065 1.75 33.25 1.75H8.75ZM11.9263 10.6925C14.4574 8.54025 17.6723 7.35966 20.9947 7.36225C24.3174 7.35791 27.5331 8.53696 30.0654 10.6881C32.5978 12.8392 34.2813 15.8219 34.8144 19.1015C35.3475 22.3812 34.6952 25.7435 32.9744 28.5859C31.2537 31.4283 28.577 33.5651 25.424 34.6132C24.7152 34.748 24.4878 34.335 24.4878 33.9622V30.0912C24.5223 29.6182 24.4549 29.1433 24.29 28.6986C24.1252 28.2539 23.8668 27.8497 23.5322 27.5135C26.6472 27.1688 29.9162 25.9892 29.9162 20.615C29.9381 19.2247 29.4229 17.8795 28.4778 16.8595C28.9039 15.6535 28.8538 14.3304 28.3378 13.16C28.3378 13.16 27.1722 12.7855 24.4982 14.595C22.2061 13.966 19.7869 13.966 17.4947 14.595C14.826 12.7855 13.65 13.16 13.65 13.16C13.1346 14.3307 13.0858 15.654 13.5135 16.8595C12.5692 17.8787 12.0535 19.2222 12.0733 20.6115C12.0733 25.9717 15.3387 27.1705 18.4432 27.524C17.9345 28.0196 17.6193 28.6805 17.5543 29.3877C17.2112 29.5804 16.8334 29.7032 16.4427 29.7491C16.0519 29.7949 15.656 29.7629 15.2777 29.6549C14.8994 29.5468 14.5462 29.3649 14.2386 29.1196C13.931 28.8743 13.675 28.5705 13.4855 28.2257C13.2617 27.8384 12.9525 27.5073 12.5812 27.2577C12.21 27.008 11.7867 26.8466 11.3435 26.7855C11.3435 26.7855 9.9785 26.768 11.249 27.6378C11.9945 28.112 12.544 28.8383 12.8013 29.6818C12.8013 29.6818 13.6045 32.368 17.4947 31.5245C17.5 32.4065 17.4982 33.1503 17.4947 33.607V33.957C17.4947 34.3245 17.2743 34.7357 16.576 34.6132C14.2224 33.8313 12.1191 32.4373 10.4819 30.5744C8.84464 28.7114 7.73237 26.4466 7.25914 24.012C6.7859 21.5774 6.96873 19.0608 7.78887 16.7202C8.60901 14.3796 10.037 12.2992 11.9263 10.6925Z" fill="#772BE2"/>
</svg>
