<svg width="42" height="42" viewBox="0 0 42 42" fill="none" xmlns="http://www.w3.org/2000/svg">
<path fill-rule="evenodd" clip-rule="evenodd" d="M8.75 1.75C6.89348 1.75 5.11301 2.4875 3.80025 3.80025C2.4875 5.11301 1.75 6.89348 1.75 8.75V33.25C1.75 35.1065 2.4875 36.887 3.80025 38.1997C5.11301 39.5125 6.89348 40.25 8.75 40.25H33.25C35.1065 40.25 36.887 39.5125 38.1997 38.1997C39.5125 36.887 40.25 35.1065 40.25 33.25V8.75C40.25 6.89348 39.5125 5.11301 38.1997 3.80025C36.887 2.4875 35.1065 1.75 33.25 1.75H8.75ZM10.8587 13.8425C11.6501 13.8425 12.409 13.5281 12.9686 12.9686C13.5281 12.409 13.8425 11.6501 13.8425 10.8587C13.8425 10.0674 13.5281 9.30848 12.9686 8.74892C12.409 8.18936 11.6501 7.875 10.8587 7.875C10.0674 7.875 9.30848 8.18936 8.74892 8.74892C8.18936 9.30848 7.875 10.0674 7.875 10.8587C7.875 11.6501 8.18936 12.409 8.74892 12.9686C9.30848 13.5281 10.0674 13.8425 10.8587 13.8425ZM13.8407 34.125V16.2277H7.875V34.125H13.8407ZM21.5967 16.2277H16.2277V34.125H21.5967V23.3275C22.288 22.204 23.4815 21 25.1755 21C27.5625 21 28.1592 23.387 28.1592 24.5805V34.125H34.125V24.5805C34.125 21.3815 32.7303 16.2277 27.5625 16.2277C24.276 16.2277 22.4525 17.4265 21.595 18.55L21.5967 16.2277Z" fill="#772BE2"/>
</svg>
