<svg width="42" height="42" viewBox="0 0 42 42" fill="none" xmlns="http://www.w3.org/2000/svg">
<path d="M4.19922 4C4.19922 1.79086 5.99008 0 8.19922 0H25.1992L37.7992 12.6V38C37.7992 40.2091 36.0084 42 33.7992 42H8.19922C5.99008 42 4.19922 40.2091 4.19922 38V4Z" fill="#772BE2"/>
<path opacity="0.3" d="M25.1992 0L37.7992 12.6H29.1992C26.9901 12.6 25.1992 10.8091 25.1992 8.6V0Z" fill="white"/>
<path d="M12.7483 33.1499V26.6044H15.3307C15.8271 26.6044 16.2501 26.6993 16.5995 26.8889C16.9489 27.0764 17.2153 27.3374 17.3985 27.6719C17.5839 28.0043 17.6766 28.3878 17.6766 28.8225C17.6766 29.2571 17.5828 29.6407 17.3953 29.9731C17.2078 30.3054 16.9361 30.5643 16.5803 30.7497C16.2266 30.9351 15.7984 31.0277 15.2955 31.0277H13.6496V29.9187H15.0718C15.3381 29.9187 15.5576 29.8729 15.7302 29.7813C15.9049 29.6875 16.0349 29.5586 16.1201 29.3946C16.2074 29.2284 16.2511 29.0377 16.2511 28.8225C16.2511 28.6052 16.2074 28.4155 16.1201 28.2536C16.0349 28.0895 15.9049 27.9628 15.7302 27.8733C15.5555 27.7816 15.3339 27.7358 15.0654 27.7358H14.1322V33.1499H12.7483ZM20.8957 33.1499H18.5754V26.6044H20.9149C21.5733 26.6044 22.1401 26.7355 22.6152 26.9976C23.0903 27.2575 23.4558 27.6314 23.7114 28.1194C23.9693 28.6073 24.0982 29.1911 24.0982 29.8708C24.0982 30.5526 23.9693 31.1385 23.7114 31.6286C23.4558 32.1187 23.0882 32.4947 22.6088 32.7568C22.1315 33.0189 21.5605 33.1499 20.8957 33.1499ZM19.9593 31.9642H20.8382C21.2473 31.9642 21.5914 31.8917 21.8705 31.7468C22.1518 31.5998 22.3627 31.3729 22.5033 31.0661C22.6461 30.7571 22.7175 30.3587 22.7175 29.8708C22.7175 29.3871 22.6461 28.9919 22.5033 28.6851C22.3627 28.3782 22.1528 28.1524 21.8737 28.0075C21.5946 27.8626 21.2505 27.7902 20.8414 27.7902H19.9593V31.9642ZM25.1233 33.1499V26.6044H29.4571V27.7454H26.5072V29.3051H29.1695V30.4461H26.5072V33.1499H25.1233Z" fill="white"/>
</svg>
