<svg width="42" height="42" viewBox="0 0 42 42" fill="none" xmlns="http://www.w3.org/2000/svg">
<path fill-rule="evenodd" clip-rule="evenodd" d="M8.75 1.75C4.884 1.75 1.75 4.884 1.75 8.75V33.25C1.75 37.1159 4.884 40.25 8.75 40.25H33.25C37.1159 40.25 40.25 37.1159 40.25 33.25V8.75C40.25 4.884 37.1159 1.75 33.25 1.75H8.75ZM8.16499 7.875C7.85811 7.98922 7.59918 8.21641 7.44805 8.51952C7.226 8.9649 7.27494 9.49758 7.57445 9.89504L17.3993 22.933L7.04643 34.0351C7.01928 34.0643 6.99373 34.0942 6.96974 34.125H10.5518L19.0034 25.0618L25.5017 33.6854C25.6541 33.8875 25.8592 34.0385 26.0904 34.125H33.8294C34.1353 34.0106 34.3936 33.7837 34.5443 33.4812C34.7664 33.0358 34.7176 32.5031 34.418 32.1057L24.5931 19.0676L35.0303 7.875H31.441L22.9889 16.9388L16.4906 8.31527C16.3378 8.11256 16.1319 7.96129 15.9 7.875H8.16499ZM27.2044 31.5831L11.2551 10.4176H14.788L30.7373 31.5831H27.2044Z" fill="#772BE2"/>
</svg>
